<svg width="72" height="72" viewBox="0 0 72 72" fill="none" xmlns="http://www.w3.org/2000/svg">
<path d="M22.4888 35.0618C22.4888 33.5699 23.0814 32.1392 24.1363 31.0843C25.1912 30.0294 26.6219 29.4368 28.1138 29.4368C29.6056 29.4368 31.0364 30.0294 32.0912 31.0843C33.1461 32.1392 33.7388 33.5699 33.7388 35.0618V54.0068H49.3763V45.0068H67.4663V64.7168C67.4663 66.2468 66.2288 67.5068 64.6763 67.5068H43.8863C38.2838 67.5068 33.7388 62.9618 33.7388 57.3593V61.8818C33.7388 63.3736 33.1461 64.8044 32.0912 65.8592C31.0364 66.9141 29.6056 67.5068 28.1138 67.5068C26.6219 67.5068 25.1912 66.9141 24.1363 65.8592C23.0814 64.8044 22.4888 63.3736 22.4888 61.8818V35.0618Z" fill="#6F6F6F"/>
<path d="M29.3512 21.7192L65.0137 37.1992C66.5212 37.8517 67.4887 39.3142 67.4887 40.9567V63.0292H52.1662C47.9362 63.0292 44.1337 61.0942 41.7712 57.8542C40.6687 56.3467 38.6212 55.9417 37.0012 56.8417L29.6662 60.9367C28.1209 61.8259 26.2869 62.0688 24.5634 61.6124C22.84 61.156 21.3665 60.0374 20.4637 58.5H18V50.625L15.0187 50.6542C14.5206 51.5079 13.808 52.2166 12.9516 52.7099C12.0951 53.2033 11.1246 53.4642 10.1362 53.4667C9.16871 53.4667 8.20121 53.2192 7.32371 52.7017C4.62371 51.1267 3.70121 47.7067 5.25371 45.0067L16.9537 25.4767C18.2304 23.4726 20.1826 21.9918 22.4567 21.3025C24.7309 20.6133 27.1766 20.7611 29.3512 21.7192ZM18.2812 45H27.5625V46.5525L32.6587 43.6117C33.0007 43.4152 33.3495 43.2517 33.705 43.1212C33.5227 41.1743 32.62 39.3656 31.1736 38.0495C29.7273 36.7335 27.8417 36.005 25.8862 36.0067C24.3787 36.0067 22.9837 39.0667 22.2412 40.3942L18.2812 45Z" fill="#D7DADC"/>
<path d="M43.1662 4.68684L48.5212 7.79184C49.1962 8.17434 49.4212 9.02934 49.0387 9.70434L27.8865 46.3658L22.914 49.2368C22.1136 49.7004 21.4169 50.3232 20.8669 51.0667C20.3169 51.8103 19.9253 52.6588 19.7163 53.5597C19.5073 54.4606 19.4854 55.3949 19.6519 56.3046C19.8184 57.2144 20.1697 58.0803 20.6842 58.8488L19.4287 61.0268C19.0687 61.6568 18.5512 62.2193 17.9437 62.6468L11.7562 67.3268C11.5927 67.438 11.4012 67.5009 11.2036 67.5084C11.006 67.5158 10.8103 67.4674 10.639 67.3688C10.4676 67.2702 10.3274 67.1253 10.2345 66.9508C10.1416 66.7763 10.0998 66.5791 10.1137 66.3818L10.9687 58.6418C11.0362 57.8768 11.2612 57.1343 11.6437 56.4818L41.2537 5.20434C41.6362 4.52934 42.4912 4.30434 43.1662 4.68684Z" fill="#E54949"/>
<path d="M19.2421 61.3261L11.5246 56.6956C11.213 57.3014 11.0241 57.9628 10.9688 58.6418L10.3726 64.0351L13.6778 65.8711L17.9438 62.6468C18.4523 62.2868 18.8978 61.8346 19.2421 61.3261Z" fill="#D7DADC"/>
<path d="M10.5411 62.377L10.1136 66.382C10.0461 67.2595 11.0361 67.822 11.7561 67.327L14.9061 64.9195L10.5411 62.377Z" fill="#6F6F6F"/>
<path d="M36.8887 12.7644L44.6737 17.2644L47.0137 13.2144L39.2287 8.71436L36.8887 12.7644Z" fill="#D7DADC"/>
</svg>
