<svg width="72" height="72" viewBox="0 0 72 72" fill="none" xmlns="http://www.w3.org/2000/svg">
<path d="M22.9905 25.1348C23.9175 22.4078 26.055 21.4111 28.548 21.4111C30.0229 21.3892 31.4482 21.9428 32.5215 22.9546L31.7813 10.3366C31.6058 8.6491 33.174 4.99285 37.0553 4.7116C38.9295 4.54735 42.8625 5.4136 43.3125 9.9136C43.7468 14.2516 44.1945 22.5068 44.415 26.5793L44.4375 27.0181C44.4375 27.3331 44.9303 27.7921 45.333 27.1418L49.7813 13.9568C50.427 12.1996 52.8413 9.0631 57.3413 10.5818C61.8413 12.1006 61.2428 17.0843 60.5385 18.9833L56.5313 30.7958C55.4445 33.8446 55.755 37.4514 56.4885 45.9654L56.4953 46.0553C57.2333 54.6323 51.1515 67.2886 33.8558 67.2886C23.8365 67.2886 16.0313 61.1731 14.274 49.5699C13.1243 41.9874 13.482 36.1238 13.482 36.1238H13.5068C13.4571 35.7969 13.4315 35.4668 13.4303 35.1361V30.0781C13.4303 25.9156 16.137 23.7826 19.476 23.7826C20.8913 23.7826 22.086 24.2888 22.9905 25.1348Z" fill="#D7DADC"/>
<path d="M34.0425 11.0858C34.0575 11.3633 34.068 11.6243 34.074 11.8688L35.2575 29.2591C35.2729 29.4887 35.2175 29.7175 35.0988 29.9146C34.9802 30.1117 34.8039 30.2677 34.5938 30.3616V28.5526C34.5938 26.0978 33.8153 24.2213 32.5778 23.0086L32.193 17.3566L31.7813 10.3366C31.6125 8.72332 33.039 5.31232 36.5513 4.76782L36.558 5.00182C35.739 5.02432 35.262 5.29207 34.9425 5.63182C34.593 6.00682 34.3395 6.56932 34.182 7.31932C33.9255 8.55457 33.9885 9.93382 34.0425 11.0858ZM19.476 40.6418C20.478 40.6388 21.3585 40.4626 22.1175 40.1131C21.1875 38.5408 20.6834 36.7533 20.655 34.9268C20.655 33.6601 20.7023 31.9366 20.7518 30.3323L20.7653 29.9093C20.8103 28.4536 20.8485 27.1418 20.8485 26.3678C20.8485 25.4611 20.9723 24.6781 21.15 24.0436C21.933 24.3001 22.6148 24.7411 23.175 25.3171C23.1255 25.6231 23.1 25.9733 23.0985 26.3678C23.0985 27.1778 23.058 28.5256 23.013 29.9633L22.9995 30.3998C22.9478 31.9083 22.9163 33.4175 22.905 34.9268C22.905 36.2993 23.3595 37.7056 23.8905 38.6843L23.9085 38.6618C24.4551 39.371 25.1583 39.9441 25.9631 40.3364C26.768 40.7287 27.6527 40.9295 28.548 40.9231C31.2638 40.9231 33.5633 39.1433 34.3238 36.3556C34.0583 40.3246 32.778 45.0001 28.512 45.0001C25.9245 45.0001 24.363 43.8751 23.6565 42.4306C22.779 43.8076 21.762 45.0001 18.9495 45.0001C14.5913 45.0001 13.7633 39.7441 13.5698 36.4478C14.1615 39.1163 16.5825 40.6418 19.476 40.6418ZM41.8365 44.8291C42.7365 45.1868 43.7535 45.4388 44.8583 45.5626C50.5553 46.1948 52.8053 51.2393 52.8053 52.8053C52.8053 53.8696 52.2428 54.6886 51.4058 55.0283C50.916 55.1763 50.3989 55.2109 49.8938 55.1296C49.7219 55.0903 49.5534 55.0377 49.3898 54.9721C48.7733 54.6931 48.303 54.1171 48.0938 53.1923C47.6145 51.0683 45.855 47.7248 42.2348 47.0048C40.2818 47.4683 38.4053 48.5326 36.3893 50.1098C34.3373 51.7163 32.2133 53.7953 29.7585 56.2073C29.5447 56.4112 29.2594 56.5228 28.964 56.5181C28.6686 56.5133 28.3869 56.3926 28.1798 56.182C27.9727 55.9713 27.8568 55.6876 27.8571 55.3922C27.8573 55.0968 27.9738 54.8134 28.1813 54.6031C30.6113 52.2136 32.8298 50.0356 35.0033 48.3368C35.9834 47.558 37.024 46.8583 38.115 46.2443C35.8358 44.9956 35.3678 42.1943 35.3678 40.8511C35.3678 39.0938 36.567 35.5793 40.7813 35.4016L40.9073 35.3971C35.919 38.8486 37.4198 43.0403 41.7668 44.8021L41.8275 44.7886L41.8365 44.8291ZM45.198 27.4186L45.252 27.2566L45.3353 27.1396L49.7813 13.9568C50.3573 12.3863 52.3463 9.71332 55.9778 10.2488C54.6728 10.2758 53.5928 11.3018 52.6365 13.0748C51.9008 14.4406 51.4125 15.9121 51.0255 17.0843C50.8838 17.5163 50.7555 17.9056 50.6318 18.2341L47.3333 28.1296C47.239 28.4127 47.0361 28.6468 46.7692 28.7804C46.5023 28.9139 46.1933 28.936 45.9101 28.8417C45.627 28.7474 45.3929 28.5445 45.2593 28.2776C45.1258 28.0107 45.1037 27.7017 45.198 27.4186Z" fill="#6F6F6F"/>
</svg>
