<svg width="72" height="72" viewBox="0 0 72 72" fill="none" xmlns="http://www.w3.org/2000/svg">
<path d="M67.5 36.0225H4.5L8.37 26.325C8.7525 25.3575 9.675 24.7275 10.71 24.7275H61.29C62.325 24.7275 63.2475 25.3575 63.63 26.325L67.5 36.0225Z" fill="#D7DADC"/>
<path d="M39.3975 7.49243H45.45C45.81 7.49243 46.1025 7.78493 46.1025 8.14493V11.3399C46.1025 11.6999 45.81 11.9924 45.45 11.9924H40.77C40.0275 11.9924 39.42 11.3849 39.42 10.6424V7.49243H39.3975Z" fill="#E54949"/>
<path d="M42.975 9.74243H36V5.24243H42.975C43.47 5.24243 43.875 5.64743 43.875 6.14243V8.81993C43.8975 9.33743 43.4925 9.74243 42.975 9.74243Z" fill="#E54949"/>
<path opacity="0.7" d="M4.5 36H20.25V67.5H4.5V36ZM67.5 36H51.75V67.5H67.5V36Z" fill="#D7DADC"/>
<path d="M51.12 31.41L37.2825 17.775C37.1173 17.609 36.921 17.4773 36.7047 17.3874C36.4885 17.2975 36.2566 17.2512 36.0225 17.2512C35.7883 17.2512 35.5564 17.2975 35.3402 17.3874C35.124 17.4773 34.9276 17.609 34.7625 17.775L20.925 31.41C20.5161 31.8152 20.2819 32.3643 20.2725 32.94V67.5225H29.1982L35.9797 64.8067L42.7612 67.5225H51.7725V32.9175C51.75 32.355 51.525 31.815 51.12 31.41Z" fill="#D7DADD"/>
<path d="M10.62 47.25H7.38C7.0425 47.25 6.75 46.9575 6.75 46.62V41.13C6.75 40.7925 7.0425 40.5 7.38 40.5H10.62C10.9575 40.5 11.25 40.7925 11.25 41.13V46.62C11.25 46.98 10.98 47.25 10.62 47.25ZM18 46.62V41.13C18 40.7925 17.7075 40.5 17.37 40.5H14.13C13.7925 40.5 13.5 40.7925 13.5 41.13V46.62C13.5 46.9575 13.7925 47.25 14.13 47.25H17.37C17.73 47.25 18 46.98 18 46.62ZM11.25 55.62V50.13C11.25 49.7925 10.9575 49.5 10.62 49.5H7.38C7.0425 49.5 6.75 49.7925 6.75 50.13V55.62C6.75 55.9575 7.0425 56.25 7.38 56.25H10.62C10.98 56.25 11.25 55.98 11.25 55.62ZM18 55.62V50.13C18 49.7925 17.7075 49.5 17.37 49.5H14.13C13.7925 49.5 13.5 49.7925 13.5 50.13V55.62C13.5 55.9575 13.7925 56.25 14.13 56.25H17.37C17.73 56.25 18 55.98 18 55.62ZM57.87 47.25H54.63C54.2925 47.25 54 46.9575 54 46.62V41.13C54 40.7925 54.2925 40.5 54.63 40.5H57.87C58.2075 40.5 58.5 40.7925 58.5 41.13V46.62C58.5 46.98 58.23 47.25 57.87 47.25ZM61.38 47.25H64.62C64.98 47.25 65.25 46.98 65.25 46.62V41.13C65.25 40.7925 64.9575 40.5 64.62 40.5H61.38C61.0425 40.5 60.75 40.7925 60.75 41.13V46.62C60.75 46.9575 61.0425 47.25 61.38 47.25ZM57.87 56.25H54.63C54.2925 56.25 54 55.9575 54 55.62V50.13C54 49.7925 54.2925 49.5 54.63 49.5H57.87C58.2075 49.5 58.5 49.7925 58.5 50.13V55.62C58.5 55.98 58.23 56.25 57.87 56.25ZM61.38 56.25H64.62C64.98 56.25 65.25 55.98 65.25 55.62V50.13C65.25 49.7925 64.9575 49.5 64.62 49.5H61.38C61.0425 49.5 60.75 49.7925 60.75 50.13V55.62C60.75 55.9575 61.0425 56.25 61.38 56.25Z" fill="#6F6F6F"/>
<path d="M36 40.5C37.7902 40.5 39.5071 39.7888 40.773 38.523C42.0388 37.2571 42.75 35.5402 42.75 33.75C42.75 31.9598 42.0388 30.2429 40.773 28.977C39.5071 27.7112 37.7902 27 36 27C34.2098 27 32.4929 27.7112 31.227 28.977C29.9612 30.2429 29.25 31.9598 29.25 33.75C29.25 35.5402 29.9612 37.2571 31.227 38.523C32.4929 39.7888 34.2098 40.5 36 40.5Z" fill="white"/>
<path d="M34.8975 13.95V5.5575C34.8975 4.9725 35.37 4.5 35.955 4.5H36.09C36.675 4.5 37.1475 4.9725 37.1475 5.5575V13.9792C37.2525 14.0482 37.35 14.1285 37.44 14.22L53.2575 30.0375C53.73 30.51 54 31.14 54 31.815L53.9775 35.91C54 35.9325 54 35.9775 54 36.0225C54 36.6525 53.505 37.1475 52.875 37.1475C52.245 37.1475 51.75 36.6525 51.75 36.0225C51.7515 36 51.7552 35.9812 51.7612 35.9662C51.7687 35.9497 51.7725 35.931 51.7725 35.91H51.75V33.1875C51.75 32.6025 51.5025 32.04 51.0975 31.635L37.26 17.7975C37.0948 17.6315 36.8985 17.4998 36.6823 17.4099C36.466 17.32 36.2342 17.2738 36 17.2738C35.7658 17.2738 35.534 17.32 35.3177 17.4099C35.1015 17.4998 34.9052 17.6315 34.74 17.7975L20.9025 31.635C20.475 32.04 20.25 32.6025 20.25 33.1875V35.91H20.2275C20.2275 35.931 20.2312 35.9497 20.2387 35.9662L20.25 36.0225C20.25 36.6525 19.755 37.1475 19.125 37.1475C18.495 37.1475 18 36.6525 18 36.0225C18 36 18.0038 35.9812 18.0113 35.9662L18.0225 35.91H18V31.815C18 31.1625 18.27 30.51 18.7425 30.0375L34.56 14.22C34.6636 14.1194 34.7766 14.029 34.8975 13.95ZM34.875 33.5475C34.875 33.588 34.8773 33.6285 34.8818 33.669C34.8651 33.8363 34.8862 34.0052 34.9434 34.1633C35.0007 34.3214 35.0926 34.4646 35.2125 34.5825L38.5425 37.9125C38.745 38.1375 39.0375 38.25 39.33 38.25C39.6225 38.25 39.8925 38.1375 40.14 37.9125C40.59 37.4625 40.59 36.765 40.14 36.315L37.125 33.3V30.375C37.125 29.745 36.63 29.25 36 29.25C35.37 29.25 34.875 29.745 34.875 30.375V33.5475ZM42.7725 67.5H29.16V55.575C29.16 54.6975 29.8575 54 30.735 54H41.1975C42.075 54 42.7725 54.6975 42.7725 55.575V67.5Z" fill="#6F6F6F"/>
</svg>
