<svg width="249" height="70" viewBox="0 0 249 70" fill="none" xmlns="http://www.w3.org/2000/svg">
<path d="M4.48972 68.8363C1.6163 68.8363 0 67.2251 0 64.3606V8.50384C0 5.63939 1.6163 4.02813 4.48972 4.02813H35.1994C38.0728 4.02813 39.6891 5.63939 39.6891 8.50384V8.86189C39.6891 11.7263 38.0728 13.3376 35.1994 13.3376H10.4162V32.8517H33.5831C36.4565 32.8517 38.0728 34.4629 38.0728 37.1483V37.2379C38.0728 40.0128 36.4565 41.624 33.5831 41.624H10.4162V64.3606C10.4162 67.2251 8.79986 68.8363 5.92643 68.8363H4.48972Z" fill="#121212"/>
<path d="M53.5876 10.7417C50.1754 10.7417 47.6612 8.77238 47.6612 5.37084C47.6612 1.96931 50.1754 0 53.5876 0C56.7304 0 59.5141 1.96931 59.5141 5.37084C59.5141 8.77238 56.7304 10.7417 53.5876 10.7417ZM52.8693 68.8363C50.0857 68.8363 48.4694 67.2251 48.4694 64.3606V22.11C48.4694 19.2455 50.0857 17.6343 52.8693 17.6343H54.0366C56.91 17.6343 58.4365 19.2455 58.4365 22.11V64.3606C58.4365 67.2251 56.91 68.8363 54.0366 68.8363H52.8693Z" fill="#121212"/>
<path d="M97.4178 16.7391C111.605 16.7391 118.16 24.8849 118.16 41.087V64.3606C118.16 67.2251 116.544 68.8363 113.671 68.8363H112.593C109.72 68.8363 108.103 67.2251 108.103 64.3606V41.8926C108.103 30.7033 103.793 25.422 94.275 25.422C84.5772 25.422 80.6263 31.7775 80.6263 43.0563V64.3606C80.6263 67.2251 79.01 68.8363 76.1366 68.8363H75.059C72.1856 68.8363 70.5693 67.2251 70.5693 64.3606V22.11C70.5693 19.2455 72.1856 17.6343 75.059 17.6343H76.1366C79.01 17.6343 80.6263 19.2455 80.6263 22.11V27.2123C82.9609 21.3043 88.7078 16.7391 97.4178 16.7391Z" fill="#121212"/>
<path d="M150.791 70C138.04 70 127.175 60.9591 127.175 43.2353C127.175 25.601 137.95 16.6496 150.701 16.6496C158.783 16.6496 166.056 20.5882 168.929 27.6598V5.46036C168.929 2.59591 170.546 0.984658 173.419 0.984658H174.497C177.37 0.984658 178.986 2.59591 178.986 5.46036V64.2711C178.986 67.1356 177.37 68.7468 174.497 68.7468H173.419C170.546 68.7468 168.929 67.1356 168.929 64.2711V59.0793C166.056 65.9719 158.783 70 150.791 70ZM153.305 61.4067C162.823 61.4067 169.199 54.5141 169.199 43.2353C169.199 32.046 162.733 25.1535 153.125 25.1535C143.697 25.1535 137.232 31.9565 137.232 43.2353C137.232 54.6036 143.697 61.4067 153.305 61.4067Z" fill="#121212"/>
<path d="M220.176 69.3734C200.78 69.3734 191.621 59.9744 191.621 39.1176V12.9795C191.621 7.16113 194.764 4.02813 200.601 4.02813H204.462C210.299 4.02813 213.441 7.16113 213.441 12.9795V39.0281C213.441 47.0844 215.147 50.4859 220.176 50.4859C225.294 50.4859 227 47.0844 227 39.1176V12.9795C227 7.16113 230.143 4.02813 235.98 4.02813H240.021C245.857 4.02813 249 7.16113 249 12.9795V39.2967C249 59.7954 239.572 69.3734 220.176 69.3734Z" fill="#E54949"/>
</svg>
